Coordinates
version=1
nRows=54
nColumns=12
inDegrees=yes

Units are S.I. units (second, meters, Newtons, ...)
Angles are in degrees

endheader
time	SC_y	SC_z	SC_x	AC_y	AC_z	AC_x	GH_y	GH_z	GH_yy	EL_x	PS_y
       0.0              -34.71          35.66          20.61          66.26         -12.02           9.36          154.0          88.93          98.97          126.7          68.57
   0.01101              -34.71          35.66          20.61          66.26         -12.02          9.356          154.0          88.92          98.97          126.7          68.57
   0.02202              -34.71          35.66          20.61          66.26         -12.02          9.352          154.0          88.91          98.96          126.7          68.57
   0.03303              -34.72          35.66          20.61          66.25         -12.01          9.348          154.0           88.9          98.95          126.7          68.57
   0.04404              -34.72          35.66          20.61          66.25         -12.01          9.343          154.0          88.88          98.94          126.6          68.57
   0.05505              -34.73          35.66          20.61          66.25         -12.01          9.338          154.0          88.87          98.92          126.6          68.57
   0.06605              -34.73          35.65          20.61          66.25          -12.0          9.333          154.0          88.86          98.91          126.6          68.56
   0.07706              -34.74          35.65          20.61          66.25          -12.0          9.327          154.0          88.84           98.9          126.6          68.56
   0.08807              -34.74          35.65          20.61          66.25          -12.0          9.321          154.1          88.83          98.89          126.6          68.56
   0.09908              -34.75          35.65          20.61          66.25         -11.99          9.315          154.1          88.81          98.87          126.5          68.56
    0.1101              -34.76          35.65          20.61          66.25         -11.99          9.308          154.1          88.79          98.86          126.5          68.56
    0.1211              -34.76          35.64          20.61          66.25         -11.98          9.301          154.1          88.77          98.84          126.5          68.56
    0.1321              -34.77          35.64          20.61          66.25         -11.98          9.293          154.1          88.75          98.82          126.4          68.56
    0.1431              -34.78          35.64          20.61          66.25         -11.97          9.284          154.1          88.73           98.8          126.4          68.56
    0.1541              -34.79          35.63          20.61          66.25         -11.97          9.275          154.1           88.7          98.78          126.4          68.55
    0.1651               -34.8          35.63          20.61          66.24         -11.96          9.264          154.1          88.68          98.76          126.3          68.55
    0.1761              -34.81          35.62          20.61          66.24         -11.95          9.253          154.1          88.65          98.73          126.3          68.55
    0.1872              -34.82          35.62          20.61          66.24         -11.94          9.241          154.1          88.62          98.71          126.2          68.55
    0.1982              -34.83          35.61          20.61          66.24         -11.94          9.228          154.1          88.58          98.68          126.2          68.55
    0.2092              -34.85          35.61          20.61          66.24         -11.93          9.214          154.1          88.54          98.64          126.1          68.54
    0.2202              -34.86           35.6          20.61          66.24         -11.92          9.198          154.1           88.5          98.61          126.0          68.54
    0.2312              -34.88           35.6          20.61          66.23          -11.9          9.181          154.1          88.46          98.57          126.0          68.54
    0.2422               -34.9          35.59          20.61          66.23         -11.89          9.161          154.2          88.41          98.52          125.9          68.54
    0.2532              -34.92          35.58          20.61          66.23         -11.88           9.14          154.2          88.35          98.48          125.8          68.53
    0.2642              -34.94          35.57          20.61          66.23         -11.86          9.116          154.2          88.29          98.42          125.7          68.53
    0.2752              -34.96          35.56          20.61          66.22         -11.84           9.09          154.2          88.22          98.36          125.6          68.52
    0.2862              -34.99          35.55          20.62          66.22         -11.83          9.061          154.2          88.14           98.3          125.5          68.52
    0.2972              -35.02          35.54          20.62          66.21          -11.8          9.027          154.2          88.06          98.22          125.3          68.51
    0.3083              -35.06          35.52          20.62          66.21         -11.78           8.99          154.3          87.96          98.13          125.2          68.51
    0.3193               -35.1          35.51          20.62           66.2         -11.75          8.947          154.3          87.84          98.04          125.0           68.5
    0.3303              -35.15          35.49          20.62           66.2         -11.72          8.898          154.3          87.72          97.93          124.8          68.49
    0.3413               -35.2          35.47          20.62          66.19         -11.68          8.842          154.3          87.57           97.8          124.6          68.48
    0.3523              -35.26          35.44          20.62          66.18         -11.64          8.778          154.4           87.4          97.65          124.3          68.47
    0.3633              -35.33          35.42          20.63          66.17         -11.59          8.703          154.4           87.2          97.48          124.0          68.46
    0.3743              -35.42          35.38          20.63          66.16         -11.53          8.615          154.5          86.97          97.29          123.6          68.44
    0.3853              -35.52          35.34          20.63          66.15         -11.47          8.512          154.5           86.7          97.05          123.2          68.42
    0.3963              -35.63           35.3          20.64          66.14         -11.39          8.389          154.6          86.38          96.77          122.7           68.4
    0.4073              -35.77          35.24          20.64          66.12         -11.29          8.241          154.7          85.99          96.44          122.1          68.38
    0.4183              -35.94          35.17          20.64          66.09         -11.17          8.063          154.8          85.53          96.03          121.4          68.35
    0.4294              -36.15          35.09          20.65          66.07         -11.03          7.845          154.9          84.96          95.54          120.5          68.31
    0.4404              -36.41          34.99          20.66          66.03         -10.86          7.576          155.1          84.25          94.93          119.4          68.26
    0.4514              -36.73          34.86          20.67          65.99         -10.64          7.241          155.3          83.37          94.17          118.0          68.21
    0.4624              -37.13           34.7          20.68          65.94         -10.36          6.819          155.6          82.26          93.21          116.2          68.13
    0.4734              -37.64           34.5           20.7          65.87         -10.01          6.282          155.9          80.86           92.0          114.0          68.04
    0.4844               -38.3          34.24          20.72          65.79         -9.562          5.595          156.3          79.05          90.44          111.2          67.92
    0.4954              -39.14          33.91          20.74          65.68         -8.986          4.713          156.8          76.74          88.44          107.6          67.77
    0.5064              -40.21          33.48          20.78          65.54          -8.25          3.587          157.5          73.79          85.89          102.9          67.58
    0.5174              -41.56          32.94          20.82          65.36         -7.325          2.171          158.4          70.07          82.68          97.09          67.34
    0.5284              -43.21          32.29          20.87          65.15         -6.198         0.4452          159.4          65.55          78.77          89.98          67.04
    0.5394              -45.11          31.53          20.93           64.9         -4.891         -1.555          160.6           60.3          74.23          81.74           66.7
    0.5505              -47.18          30.71          20.99          64.63         -3.477         -3.721          162.0          54.62          69.32          72.82          66.33
    0.5615              -49.24           29.9          21.05          64.36         -2.062         -5.887          163.3          48.94          64.41           63.9          65.96
    0.5725              -51.15          29.14          21.11          64.11        -0.7551         -7.887          164.5           43.7          59.88          55.66          65.62
    0.5835               -52.8          28.49          21.16          63.89         0.3722         -9.613          165.5          39.17          55.97          48.55          65.32
